<?xml version="1.0" standalone="no"?>
<!DOCTYPE svg PUBLIC "-//W3C//DTD SVG 20010904//EN"
 "http://www.w3.org/TR/2001/REC-SVG-20010904/DTD/svg10.dtd">
<svg version="1.0" xmlns="http://www.w3.org/2000/svg"
 width="16.000000pt" height="16.000000pt" viewBox="0 0 16.000000 16.000000"
 preserveAspectRatio="xMidYMid meet">
<metadata>
Created by potrace 1.11, written by Peter Selinger 2001-2013
</metadata>
<g transform="translate(0.000000,16.000000) scale(0.001563,-0.001563)"
fill="#000000" stroke="none">
<path d="M4558 10235 c-2 -1 -84 -6 -183 -9 -99 -4 -207 -9 -240 -11 -292 -20
-286 -19 -395 -29 -75 -7 -111 -11 -185 -20 -22 -3 -62 -8 -90 -11 -27 -3 -84
-10 -125 -15 -41 -6 -91 -13 -110 -16 -146 -19 -493 -89 -640 -128 -172 -46
-227 -62 -347 -102 -421 -141 -806 -347 -1063 -569 -51 -44 -240 -234 -274
-275 -69 -85 -167 -222 -220 -310 -31 -52 -61 -102 -66 -110 -12 -18 -134
-263 -135 -270 -1 -3 -9 -23 -19 -45 -125 -282 -258 -748 -320 -1120 -21 -123
-35 -217 -41 -260 -3 -27 -8 -61 -10 -75 -12 -83 -38 -323 -50 -465 -2 -22 -6
-87 -10 -145 -3 -58 -8 -127 -10 -153 -27 -308 -27 -1563 0 -1957 2 -36 7
-103 10 -150 10 -160 15 -215 20 -255 3 -22 7 -65 10 -95 6 -67 15 -146 20
-180 2 -14 7 -47 10 -75 6 -59 16 -132 21 -160 2 -11 9 -47 14 -80 6 -33 12
-71 14 -85 3 -14 7 -41 10 -60 12 -82 68 -331 102 -453 20 -73 40 -145 44
-162 29 -107 152 -441 188 -512 6 -10 33 -65 61 -123 177 -361 393 -638 681
-875 246 -204 619 -397 1025 -533 112 -38 359 -108 415 -118 14 -3 41 -9 60
-14 19 -5 46 -11 60 -14 14 -2 93 -18 175 -34 83 -17 168 -33 190 -36 22 -3
72 -10 110 -15 39 -6 93 -13 120 -16 28 -4 61 -8 75 -10 14 -2 52 -7 85 -10
33 -3 76 -8 95 -10 19 -3 67 -7 105 -11 39 -3 86 -7 105 -9 19 -2 85 -7 145
-10 61 -4 133 -8 160 -10 262 -20 1370 -27 1715 -12 331 15 456 24 725 52 28
3 75 7 105 10 30 3 66 8 80 10 14 2 50 7 80 10 45 5 201 29 395 62 17 2 82 16
145 30 63 13 126 27 140 29 31 6 193 49 315 84 290 82 656 243 898 394 254
158 483 365 659 596 173 228 331 529 448 855 55 152 109 328 126 409 2 10 8
33 13 50 6 17 12 42 15 56 2 14 9 43 15 66 12 46 66 318 75 379 3 22 8 51 10
64 8 34 31 200 41 296 3 28 8 64 10 80 8 58 17 150 20 195 2 25 6 77 9 115 32
376 41 643 41 1270 0 453 -7 794 -20 975 -1 25 -6 92 -9 150 -4 58 -9 119 -11
135 -2 17 -7 67 -10 113 -4 45 -8 93 -10 105 -2 12 -6 52 -10 89 -3 37 -8 77
-10 90 -2 13 -7 44 -9 70 -3 26 -8 63 -11 82 -3 20 -7 53 -10 74 -6 39 -42
253 -49 287 -54 268 -86 393 -158 630 -30 99 -94 274 -128 350 -9 22 -28 65
-41 95 -72 173 -215 416 -344 587 -72 96 -256 293 -345 369 -343 292 -835 524
-1430 675 -166 41 -271 64 -450 95 -47 8 -96 17 -110 19 -14 3 -61 9 -105 15
-44 6 -91 13 -105 15 -14 2 -50 7 -80 10 -30 3 -66 8 -80 10 -14 2 -59 7 -100
10 -41 4 -88 9 -105 11 -16 2 -64 6 -105 9 -41 3 -97 7 -125 10 -27 2 -104 7
-170 11 -66 3 -147 8 -180 10 -70 5 -1352 13 -1357 9z"/>
</g>
</svg>
