<svg width="64" height="32" viewBox="0 0 64 32" xmlns="http://www.w3.org/2000/svg" xmlns:xlink="http://www.w3.org/1999/xlink" xmlns:figma="http://www.figma.com/figma/ns"><title>Logo</title><desc>Created using Figma</desc><g figma:type="symbol"><use xlink:href="#a" fill="#48A7F9" figma:type="rounded-rectangle"/><use xlink:href="#b" transform="translate(16)" fill="#1385E8" figma:type="vector"/><use xlink:href="#c" transform="translate(32)" fill="#0E589A" figma:type="vector"/></g><defs><path id="a" d="M0 3c0-1.657 1.343-3 3-3h58c1.657 0 3 1.343 3 3v10c0 1.657-1.343 3-3 3H3c-1.657 0-3-1.343-3-3V3z"/><path id="b" d="M0 0h45c1.657 0 3 1.343 3 3v18c0 1.657-1.343 3-3 3H3c-1.657 0-3-1.343-3-3V0z"/><path id="c" d="M0 0h29c1.657 0 3 1.343 3 3v26c0 1.657-1.343 3-3 3H3c-1.657 0-3-1.343-3-3V0z"/></defs></svg>