<svg width="423" height="64" viewBox="0 0 423 64" xmlns="http://www.w3.org/2000/svg" xmlns:xlink="http://www.w3.org/1999/xlink" xmlns:figma="http://www.figma.com/figma/ns"><title>Wordmark - No Container</title><desc>Created using Figma</desc><g transform="translate(-164 -134)" figma:type="canvas"><mask id="a"><path d="M164 134h423v64H164v-64z" fill="#FFF"/></mask><g mask="url(#a)" figma:type="frame"><mask id="b"><path d="M164 134h64v64h-64v-64z" fill="#FFF"/></mask><g figma:type="instance" mask="url(#b)"><use xlink:href="#c" transform="translate(164 150)" fill="#48A7F9" figma:type="rounded-rectangle"/><use xlink:href="#d" transform="translate(180 150)" fill="#1385E8" figma:type="vector"/><use xlink:href="#e" transform="translate(196 150)" fill="#0E589A" figma:type="vector"/></g><use xlink:href="#f" transform="translate(236 134)" figma:type="text"/></g></g><defs><path id="c" d="M0 3c0-1.657 1.343-3 3-3h58c1.657 0 3 1.343 3 3v10c0 1.657-1.343 3-3 3H3c-1.657 0-3-1.343-3-3V3z"/><path id="d" d="M0 0h45c1.657 0 3 1.343 3 3v18c0 1.657-1.343 3-3 3H3c-1.657 0-3-1.343-3-3V0z"/><path id="e" d="M0 0h29c1.657 0 3 1.343 3 3v26c0 1.657-1.343 3-3 3H3c-1.657 0-3-1.343-3-3V0z"/><path id="f" d="M5.92 42H2.752V19.344h7.264c1.088 0 2.123.117 3.104.352.98.213 1.835.565 2.56 1.056.747.49 1.333 1.14 1.76 1.952.427.79.64 1.76.64 2.912 0 1.664-.512 3.008-1.536 4.032s-2.347 1.675-3.968 1.952L18.912 42h-3.84l-5.76-10.08H5.92V42zm0-12.736h3.648c.747 0 1.44-.064 2.08-.192.64-.128 1.195-.33 1.664-.608.49-.3.875-.672 1.152-1.12.277-.47.416-1.045.416-1.728s-.14-1.248-.416-1.696c-.277-.47-.65-.843-1.12-1.12-.448-.277-.98-.47-1.6-.576-.62-.128-1.27-.192-1.952-.192H5.92v7.232zm27.057 3.808c-.02-.597-.128-1.152-.32-1.664-.17-.533-.437-.992-.8-1.376-.34-.384-.778-.683-1.312-.896-.512-.235-1.12-.352-1.824-.352-.64 0-1.247.117-1.823.352-.554.213-1.045.512-1.472.896-.405.384-.746.843-1.024 1.376-.255.512-.404 1.067-.447 1.664h9.024zm3.04 1.216v.512c0 .17-.01.34-.032.512H23.953c.022.64.16 1.248.416 1.824.277.555.64 1.045 1.087 1.472.448.405.96.725 1.536.96.598.235 1.227.352 1.888.352 1.025 0 1.91-.224 2.657-.672.747-.448 1.334-.992 1.76-1.632l2.112 1.696c-.81 1.067-1.77 1.856-2.88 2.368-1.09.49-2.305.736-3.65.736-1.15 0-2.217-.192-3.2-.576-.98-.384-1.823-.917-2.527-1.6-.704-.704-1.258-1.547-1.664-2.528-.406-.98-.61-2.07-.61-3.264 0-1.173.193-2.25.577-3.232.406-1.003.96-1.856 1.664-2.56.705-.704 1.537-1.248 2.497-1.632.96-.405 1.995-.608 3.104-.608 1.11 0 2.113.18 3.01.544.917.363 1.685.885 2.303 1.568.64.683 1.13 1.515 1.472 2.496.342.96.512 2.048.512 3.264zm12.392-3.616c-.342-.555-.822-1.003-1.44-1.344-.62-.363-1.313-.544-2.08-.544-.342 0-.684.043-1.025.128-.34.064-.65.18-.928.352-.256.15-.47.352-.64.608-.15.235-.224.533-.224.896 0 .64.288 1.12.864 1.44.576.3 1.44.576 2.592.832.724.17 1.396.373 2.015.608.62.235 1.152.533 1.6.896.47.34.832.757 1.088 1.248.256.49.384 1.067.384 1.728 0 .896-.17 1.653-.512 2.272-.34.62-.8 1.13-1.376 1.536-.556.384-1.196.66-1.92.832-.726.17-1.473.256-2.24.256-1.153 0-2.284-.224-3.393-.672-1.088-.448-1.995-1.13-2.72-2.048l2.144-1.824c.406.597.96 1.1 1.665 1.504.725.405 1.515.608 2.368.608.384 0 .747-.032 1.088-.096.364-.085.684-.213.96-.384.3-.17.534-.395.705-.672.17-.277.256-.63.256-1.056 0-.704-.34-1.227-1.023-1.568-.66-.34-1.643-.66-2.944-.96-.512-.128-1.035-.277-1.568-.448-.512-.192-.98-.448-1.408-.768-.427-.32-.78-.715-1.056-1.184-.255-.49-.383-1.088-.383-1.792 0-.81.16-1.504.48-2.08.34-.597.78-1.077 1.312-1.44.532-.384 1.14-.66 1.823-.832.683-.192 1.387-.288 2.112-.288 1.088 0 2.133.213 3.136.64 1.025.427 1.814 1.045 2.37 1.856l-2.08 1.76zm9.034 19.008h-3.008V26.832h2.944V29.2h.096c.49-.81 1.205-1.472 2.144-1.984.96-.533 2.07-.8 3.328-.8 1.13 0 2.154.203 3.072.608.938.405 1.738.97 2.4 1.696.682.725 1.205 1.58 1.568 2.56.362.96.544 1.995.544 3.104 0 1.11-.182 2.155-.544 3.136-.363.98-.875 1.835-1.536 2.56-.662.725-1.462 1.3-2.4 1.728-.94.405-1.995.608-3.168.608-1.088 0-2.112-.235-3.072-.704-.96-.47-1.718-1.13-2.272-1.984h-.096v9.952zm9.984-15.296c0-.704-.107-1.387-.32-2.048-.214-.66-.534-1.248-.96-1.76-.427-.512-.96-.917-1.6-1.216-.62-.3-1.344-.448-2.176-.448-.768 0-1.472.15-2.112.448-.62.3-1.152.704-1.6 1.216-.448.512-.8 1.1-1.056 1.76-.235.66-.352 1.355-.352 2.08 0 .725.117 1.42.352 2.08.256.66.608 1.248 1.056 1.76.448.49.98.885 1.6 1.184.64.3 1.344.448 2.112.448.832 0 1.557-.15 2.176-.448.64-.32 1.173-.736 1.6-1.248.426-.512.746-1.1.96-1.76.213-.66.32-1.344.32-2.048zm22.65 0c0 1.173-.214 2.25-.64 3.232-.406.98-.982 1.835-1.73 2.56-.724.704-1.588 1.26-2.59 1.664-1.004.384-2.08.576-3.233.576-1.152 0-2.23-.192-3.232-.576-1.003-.405-1.867-.96-2.592-1.664-.724-.725-1.3-1.58-1.727-2.56-.405-.98-.608-2.06-.608-3.232 0-1.173.203-2.24.608-3.2.427-.98 1.003-1.824 1.728-2.528.726-.704 1.59-1.248 2.593-1.632 1.003-.405 2.08-.608 3.232-.608 1.152 0 2.23.203 3.232.608 1.003.384 1.867.928 2.592 1.632.746.704 1.322 1.547 1.727 2.528.427.96.64 2.027.64 3.2zm-3.137 0c0-.725-.116-1.42-.35-2.08-.214-.66-.534-1.237-.96-1.728-.428-.512-.96-.917-1.6-1.216-.62-.3-1.334-.448-2.145-.448-.81 0-1.536.15-2.176.448-.62.3-1.142.704-1.57 1.216-.426.49-.756 1.067-.99 1.728-.214.66-.32 1.355-.32 2.08 0 .725.106 1.42.32 2.08.234.66.564 1.248.99 1.76.428.512.95.917 1.57 1.216.64.3 1.364.448 2.175.448.81 0 1.525-.15 2.144-.448.64-.3 1.172-.704 1.6-1.216.426-.512.746-1.1.96-1.76.234-.66.35-1.355.35-2.08zm10.028-7.552c.043.384.075.82.096 1.312.022.47.032.864.032 1.184h.096c.192-.405.448-.78.768-1.12.342-.363.726-.672 1.152-.928.427-.277.896-.49 1.408-.64.512-.15 1.046-.224 1.6-.224.982 0 1.824.17 2.528.512.704.32 1.29.757 1.76 1.312s.81 1.205 1.024 1.952c.235.747.352 1.547.352 2.4V42h-3.008v-8.416c0-.62-.053-1.205-.16-1.76-.085-.555-.256-1.045-.512-1.472-.256-.427-.608-.768-1.056-1.024-.448-.256-1.024-.384-1.728-.384-1.194 0-2.176.46-2.944 1.376-.746.896-1.12 2.1-1.12 3.616V42h-3.008V30.096c0-.405-.01-.928-.032-1.568-.02-.64-.053-1.205-.096-1.696h2.848zm24.097 3.84c-.34-.555-.82-1.003-1.44-1.344-.618-.363-1.312-.544-2.08-.544-.34 0-.682.043-1.024.128-.34.064-.65.18-.927.352-.256.15-.47.352-.64.608-.15.235-.224.533-.224.896 0 .64.287 1.12.863 1.44.576.3 1.44.576 2.592.832.726.17 1.398.373 2.016.608.62.235 1.153.533 1.6.896.47.34.833.757 1.09 1.248.255.49.383 1.067.383 1.728 0 .896-.17 1.653-.512 2.272-.34.62-.8 1.13-1.375 1.536-.554.384-1.194.66-1.92.832-.725.17-1.472.256-2.24.256-1.152 0-2.282-.224-3.392-.672-1.088-.448-1.994-1.13-2.72-2.048l2.144-1.824c.406.597.96 1.1 1.664 1.504.727.405 1.516.608 2.37.608.383 0 .746-.032 1.087-.096.363-.085.683-.213.96-.384.3-.17.534-.395.704-.672.172-.277.257-.63.257-1.056 0-.704-.34-1.227-1.024-1.568-.66-.34-1.642-.66-2.944-.96-.513-.128-1.035-.277-1.57-.448-.51-.192-.98-.448-1.407-.768-.426-.32-.778-.715-1.056-1.184-.256-.49-.384-1.088-.384-1.792 0-.81.16-1.504.48-2.08.342-.597.78-1.077 1.312-1.44.534-.384 1.142-.66 1.824-.832.682-.192 1.386-.288 2.11-.288 1.09 0 2.135.213 3.137.64 1.024.427 1.814 1.045 2.368 1.856l-2.08 1.76zM130.132 42h-3.008V26.832h3.008V42zm.512-20.64c0 .555-.203 1.013-.608 1.376-.384.363-.853.544-1.408.544-.555 0-1.024-.18-1.408-.544-.384-.384-.576-.843-.576-1.376 0-.555.192-1.013.576-1.376.384-.384.853-.576 1.408-.576.555 0 1.024.192 1.408.576.405.363.608.82.608 1.376zM142.51 42h-3.265l-6.176-15.168h3.327l4.448 11.936h.064l4.48-11.936h3.2L142.51 42zm20.092-8.928c-.02-.597-.128-1.152-.32-1.664-.17-.533-.437-.992-.8-1.376-.34-.384-.778-.683-1.312-.896-.512-.235-1.12-.352-1.824-.352-.64 0-1.248.117-1.824.352-.554.213-1.045.512-1.472.896-.405.384-.746.843-1.024 1.376-.256.512-.405 1.067-.448 1.664h9.024zm3.04 1.216v.512c0 .17-.01.34-.032.512h-12.032c.022.64.16 1.248.416 1.824.278.555.64 1.045 1.088 1.472.448.405.96.725 1.536.96.598.235 1.227.352 1.888.352 1.024 0 1.91-.224 2.656-.672.747-.448 1.334-.992 1.76-1.632l2.112 1.696c-.81 1.067-1.77 1.856-2.88 2.368-1.088.49-2.304.736-3.648.736-1.152 0-2.218-.192-3.2-.576-.98-.384-1.824-.917-2.528-1.6-.704-.704-1.258-1.547-1.664-2.528-.405-.98-.608-2.07-.608-3.264 0-1.173.192-2.25.576-3.232.406-1.003.96-1.856 1.664-2.56s1.536-1.248 2.496-1.632c.96-.405 1.995-.608 3.104-.608 1.11 0 2.112.18 3.008.544.918.363 1.686.885 2.304 1.568.64.683 1.13 1.515 1.472 2.496.342.96.512 2.048.512 3.264zm31.784 4.192c-.896 1.216-2.06 2.208-3.488 2.976-1.43.747-3.147 1.12-5.152 1.12-1.728 0-3.328-.288-4.8-.864-1.45-.597-2.71-1.42-3.776-2.464-1.045-1.067-1.867-2.325-2.464-3.776-.597-1.472-.896-3.083-.896-4.832 0-1.77.3-3.38.896-4.832.62-1.472 1.46-2.72 2.528-3.744 1.088-1.045 2.368-1.856 3.84-2.432 1.472-.576 3.072-.864 4.8-.864.768 0 1.547.075 2.336.224.79.15 1.547.373 2.272.672.725.3 1.387.672 1.984 1.12.597.427 1.11.928 1.536 1.504l-2.496 1.92c-.555-.768-1.344-1.397-2.368-1.888-1.003-.512-2.09-.768-3.264-.768-1.323 0-2.517.245-3.584.736-1.045.47-1.94 1.12-2.688 1.952-.747.832-1.323 1.803-1.728 2.912-.405 1.088-.608 2.25-.608 3.488 0 1.28.192 2.475.576 3.584.405 1.11.97 2.08 1.696 2.912.747.81 1.643 1.45 2.688 1.92 1.067.47 2.25.704 3.552.704 1.28 0 2.443-.256 3.488-.768s1.91-1.26 2.592-2.24l2.528 1.728zm10.98 3.52h-3.167V22.128h-7.265v-2.784h17.696v2.784h-7.263V42zm9.305 0h-3.52l9.825-22.656h2.88L236.623 42h-3.584l-2.305-5.568h-10.752L217.71 42zm3.393-8.352h8.48l-4.224-10.624-4.257 10.624zm25.868-14.304h7.81c.852 0 1.705.096 2.56.288.852.192 1.61.512 2.27.96.683.448 1.227 1.035 1.633 1.76.426.725.64 1.632.64 2.72 0 1.26-.363 2.315-1.088 3.168-.726.853-1.686 1.44-2.88 1.76v.064c.725.085 1.397.277 2.016.576.62.277 1.153.65 1.6 1.12.45.47.79 1.024 1.025 1.664.256.64.384 1.355.384 2.144 0 1.088-.225 2.037-.673 2.848-.448.81-1.056 1.483-1.824 2.016-.768.512-1.675.907-2.72 1.184-1.024.256-2.123.384-3.296.384h-7.456V19.344zm3.17 9.568h4.127c.597 0 1.162-.064 1.696-.192.554-.15 1.034-.363 1.44-.64.405-.3.725-.66.96-1.088.234-.448.352-.98.352-1.6 0-1.216-.448-2.08-1.344-2.592-.895-.533-2.1-.8-3.615-.8h-3.616v6.912zm0 10.4h3.967c.66 0 1.322-.053 1.984-.16.683-.128 1.29-.34 1.825-.64.554-.3.992-.693 1.312-1.184.34-.512.512-1.152.512-1.92 0-1.344-.46-2.315-1.377-2.912-.918-.597-2.24-.896-3.968-.896h-4.256v7.712zM278.03 42c-.043-.384-.075-.81-.096-1.28-.02-.49-.032-.896-.032-1.216h-.064c-.384.81-1.035 1.504-1.952 2.08-.896.555-1.9.832-3.008.832-.98 0-1.835-.16-2.56-.48-.704-.32-1.29-.757-1.76-1.312-.448-.576-.79-1.237-1.024-1.984-.213-.747-.32-1.547-.32-2.4v-9.408h3.008v8.384c0 .62.043 1.216.128 1.792.107.555.288 1.045.544 1.472.256.427.608.768 1.056 1.024.448.256 1.024.384 1.728.384 1.216 0 2.197-.448 2.944-1.344.747-.917 1.12-2.133 1.12-3.648v-8.064h3.008v11.904c0 .405.01.928.032 1.568.02.64.053 1.205.096 1.696h-2.848zm10.977 0H286V26.832h3.007V42zm.512-20.64c0 .555-.204 1.013-.61 1.376-.383.363-.852.544-1.407.544s-1.024-.18-1.408-.544c-.384-.384-.576-.843-.576-1.376 0-.555.19-1.013.575-1.376.384-.384.853-.576 1.408-.576.555 0 1.024.192 1.408.576.406.363.61.82.61 1.376zm7.8 20.64h-3.008V17.808h3.008V42zm17.337-2.4c-.576.917-1.366 1.62-2.368 2.112-.983.47-2.017.704-3.105.704-1.174 0-2.23-.203-3.168-.608-.94-.427-1.74-1.003-2.4-1.728-.662-.725-1.174-1.58-1.536-2.56-.362-.98-.543-2.027-.543-3.136 0-1.11.18-2.144.544-3.104.363-.98.875-1.835 1.537-2.56.682-.725 1.493-1.29 2.432-1.696.937-.405 1.972-.608 3.103-.608 1.237 0 2.314.267 3.232.8.917.512 1.642 1.14 2.176 1.888h.065V17.808h3.008V42h-2.912v-2.4h-.063zm-9.984-5.216c0 .704.106 1.387.32 2.048.213.66.533 1.248.96 1.76.426.512.95.928 1.568 1.248.62.3 1.345.448 2.177.448.768 0 1.46-.15 2.08-.448.64-.3 1.184-.693 1.632-1.184.447-.512.788-1.1 1.023-1.76.256-.66.384-1.355.384-2.08 0-.725-.128-1.42-.384-2.08-.235-.66-.576-1.248-1.024-1.76-.45-.512-.993-.917-1.633-1.216-.62-.3-1.312-.448-2.08-.448-.832 0-1.558.15-2.176.448-.618.3-1.14.704-1.567 1.216-.427.512-.747 1.1-.96 1.76-.214.66-.32 1.344-.32 2.048zm29.304-1.312c-.02-.597-.128-1.152-.32-1.664-.17-.533-.437-.992-.8-1.376-.34-.384-.778-.683-1.312-.896-.512-.235-1.12-.352-1.824-.352-.64 0-1.247.117-1.823.352-.554.213-1.045.512-1.472.896-.405.384-.746.843-1.024 1.376-.255.512-.404 1.067-.447 1.664h9.024zm3.04 1.216v.512c0 .17-.01.34-.032.512h-12.032c.022.64.16 1.248.416 1.824.277.555.64 1.045 1.087 1.472.448.405.96.725 1.536.96.598.235 1.227.352 1.888.352 1.025 0 1.91-.224 2.657-.672.747-.448 1.334-.992 1.76-1.632l2.112 1.696c-.81 1.067-1.77 1.856-2.88 2.368-1.09.49-2.305.736-3.65.736-1.15 0-2.217-.192-3.2-.576-.98-.384-1.823-.917-2.527-1.6-.704-.704-1.258-1.547-1.664-2.528-.406-.98-.61-2.07-.61-3.264 0-1.173.193-2.25.577-3.232.406-1.003.96-1.856 1.664-2.56.705-.704 1.537-1.248 2.497-1.632.96-.405 1.995-.608 3.104-.608 1.11 0 2.113.18 3.01.544.917.363 1.685.885 2.303 1.568.64.683 1.13 1.515 1.472 2.496.342.96.512 2.048.512 3.264zm4.2-4.192c0-.405-.01-.928-.032-1.568-.02-.64-.053-1.205-.096-1.696h2.847c.043.384.075.832.096 1.344.02.49.032.896.032 1.216h.096c.428-.896 1.046-1.61 1.857-2.144.832-.555 1.76-.832 2.784-.832.47 0 .865.043 1.185.128l-.128 2.784c-.427-.107-.885-.16-1.376-.16-.724 0-1.354.14-1.887.416-.533.256-.98.608-1.344 1.056-.342.448-.598.97-.77 1.568-.17.576-.255 1.184-.255 1.824V42h-3.008V30.096z"/></defs></svg>