<svg width="423" height="64" viewBox="0 0 423 64" version="1.1" xmlns="http://www.w3.org/2000/svg" xmlns:xlink="http://www.w3.org/1999/xlink" xmlns:figma="http://www.figma.com/figma/ns">
<title>Wordmark - No Container</title>
<desc>Created using Figma</desc>
<g id="Canvas" transform="translate(-164 -134)" figma:type="canvas">
<mask id="mask0_alpha" mask-type="alpha">
<path d="M 164 134L 587 134L 587 198L 164 198L 164 134Z" fill="#FFFFFF"/>
</mask>
<g id="Wordmark - No Container" mask="url(#mask0_alpha)" figma:type="frame">
<mask id="mask1_alpha" mask-type="alpha">
<path d="M 164 134L 228 134L 228 198L 164 198L 164 134Z" fill="#FFFFFF"/>
</mask>
<g id="Logo Container" mask="url(#mask1_alpha)" figma:type="frame">
<g id="Shape" figma:type="instance">
<g id="Rectangle" figma:type="rounded-rectangle">
<use xlink:href="#path0_fill" transform="translate(164 150)" fill="#48A7F9"/>
</g>
<g id="Rectangle" figma:type="vector">
<use xlink:href="#path1_fill" transform="translate(180 150)" fill="#1385E8"/>
</g>
<g id="Rectangle" figma:type="vector">
<use xlink:href="#path2_fill" transform="translate(196 150)" fill="#0E589A"/>
</g>
</g>
</g>
<g id="Responsive CTA Builder" figma:type="text">
<use xlink:href="#path3_fill" transform="translate(236 134)"/>
</g>
</g>
</g>
<defs>
<path id="path0_fill" d="M 0 3C 0 1.34315 1.34315 0 3 0L 61 0C 62.6569 0 64 1.34315 64 3L 64 13C 64 14.6569 62.6569 16 61 16L 3 16C 1.34315 16 0 14.6569 0 13L 0 3Z"/>
<path id="path1_fill" d="M 0 0L 45 0C 46.6569 0 48 1.34315 48 3L 48 21C 48 22.6569 46.6569 24 45 24L 3 24C 1.34315 24 0 22.6569 0 21L 0 0Z"/>
<path id="path2_fill" d="M 0 0L 29 0C 30.6569 0 32 1.34315 32 3L 32 29C 32 30.6569 30.6569 32 29 32L 3 32C 1.34315 32 0 30.6569 0 29L 0 0Z"/>
<path id="path3_fill" d="M 5.92 42L 2.752 42L 2.752 19.344L 10.016 19.344C 11.104 19.344 12.1387 19.4613 13.12 19.696C 14.1013 19.9093 14.9547 20.2613 15.68 20.752C 16.4267 21.2427 17.0133 21.8933 17.44 22.704C 17.8667 23.4933 18.08 24.464 18.08 25.616C 18.08 27.28 17.568 28.624 16.544 29.648C 15.52 30.672 14.1973 31.3227 12.576 31.6L 18.912 42L 15.072 42L 9.312 31.92L 5.92 31.92L 5.92 42ZM 5.92 29.264L 9.568 29.264C 10.3147 29.264 11.008 29.2 11.648 29.072C 12.288 28.944 12.8427 28.7413 13.312 28.464C 13.8027 28.1653 14.1867 27.792 14.464 27.344C 14.7413 26.8747 14.88 26.2987 14.88 25.616C 14.88 24.9333 14.7413 24.368 14.464 23.92C 14.1867 23.4507 13.8133 23.0773 13.344 22.8C 12.896 22.5227 12.3627 22.3307 11.744 22.224C 11.1253 22.096 10.4747 22.032 9.792 22.032L 5.92 22.032L 5.92 29.264ZM 32.9773 33.072C 32.9559 32.4747 32.8492 31.92 32.6573 31.408C 32.4866 30.8747 32.2199 30.416 31.8573 30.032C 31.5159 29.648 31.0786 29.3493 30.5452 29.136C 30.0332 28.9013 29.4253 28.784 28.7212 28.784C 28.0813 28.784 27.4733 28.9013 26.8973 29.136C 26.3426 29.3493 25.8519 29.648 25.4253 30.032C 25.0199 30.416 24.6786 30.8747 24.4012 31.408C 24.1452 31.92 23.9959 32.4747 23.9532 33.072L 32.9773 33.072ZM 36.0173 34.288C 36.0173 34.4587 36.0173 34.6293 36.0173 34.8C 36.0173 34.9707 36.0066 35.1413 35.9853 35.312L 23.9532 35.312C 23.9746 35.952 24.1132 36.56 24.3692 37.136C 24.6466 37.6907 25.0093 38.1813 25.4573 38.608C 25.9053 39.0133 26.4173 39.3333 26.9932 39.568C 27.5906 39.8027 28.2199 39.92 28.8813 39.92C 29.9052 39.92 30.7906 39.696 31.5372 39.248C 32.2839 38.8 32.8706 38.256 33.2972 37.616L 35.4093 39.312C 34.5986 40.3787 33.6386 41.168 32.5293 41.68C 31.4412 42.1707 30.2253 42.416 28.8813 42.416C 27.7292 42.416 26.6626 42.224 25.6813 41.84C 24.6999 41.456 23.8573 40.9227 23.1532 40.24C 22.4492 39.536 21.8946 38.6933 21.4892 37.712C 21.0839 36.7307 20.8813 35.6427 20.8813 34.448C 20.8813 33.2747 21.0733 32.1973 21.4573 31.216C 21.8626 30.2133 22.4172 29.36 23.1212 28.656C 23.8253 27.952 24.6572 27.408 25.6172 27.024C 26.5773 26.6187 27.6119 26.416 28.7212 26.416C 29.8306 26.416 30.8333 26.5973 31.7292 26.96C 32.6466 27.3227 33.4146 27.8453 34.0332 28.528C 34.6733 29.2107 35.1639 30.0427 35.5053 31.024C 35.8466 31.984 36.0173 33.072 36.0173 34.288ZM 48.409 30.672C 48.0677 30.1173 47.5877 29.6693 46.969 29.328C 46.3503 28.9653 45.657 28.784 44.889 28.784C 44.5477 28.784 44.2063 28.8267 43.865 28.912C 43.5237 28.976 43.2143 29.0933 42.937 29.264C 42.681 29.4133 42.4677 29.616 42.297 29.872C 42.1477 30.1067 42.073 30.4053 42.073 30.768C 42.073 31.408 42.361 31.888 42.937 32.208C 43.513 32.5067 44.377 32.784 45.529 33.04C 46.2543 33.2107 46.9263 33.4133 47.545 33.648C 48.1637 33.8827 48.697 34.1813 49.145 34.544C 49.6143 34.8853 49.977 35.3013 50.233 35.792C 50.489 36.2827 50.617 36.8587 50.617 37.52C 50.617 38.416 50.4463 39.1733 50.105 39.792C 49.7637 40.4107 49.305 40.9227 48.729 41.328C 48.1743 41.712 47.5343 41.9893 46.809 42.16C 46.0837 42.3307 45.337 42.416 44.569 42.416C 43.417 42.416 42.2863 42.192 41.177 41.744C 40.089 41.296 39.1823 40.6133 38.457 39.696L 40.601 37.872C 41.0063 38.4693 41.561 38.9707 42.265 39.376C 42.9903 39.7813 43.7797 39.984 44.633 39.984C 45.017 39.984 45.3797 39.952 45.721 39.888C 46.0837 39.8027 46.4037 39.6747 46.681 39.504C 46.9797 39.3333 47.2143 39.1093 47.385 38.832C 47.5557 38.5547 47.641 38.2027 47.641 37.776C 47.641 37.072 47.2997 36.5493 46.617 36.208C 45.9557 35.8667 44.9743 35.5467 43.673 35.248C 43.161 35.12 42.6383 34.9707 42.105 34.8C 41.593 34.608 41.1237 34.352 40.697 34.032C 40.2703 33.712 39.9183 33.3173 39.641 32.848C 39.385 32.3573 39.257 31.76 39.257 31.056C 39.257 30.2453 39.417 29.552 39.737 28.976C 40.0783 28.3787 40.5157 27.8987 41.049 27.536C 41.5823 27.152 42.1903 26.8747 42.873 26.704C 43.5557 26.512 44.2597 26.416 44.985 26.416C 46.073 26.416 47.1183 26.6293 48.121 27.056C 49.145 27.4827 49.9343 28.1013 50.489 28.912L 48.409 30.672ZM 57.4437 49.68L 54.4358 49.68L 54.4358 26.832L 57.3797 26.832L 57.3797 29.2L 57.4757 29.2C 57.9664 28.3893 58.6811 27.728 59.6198 27.216C 60.5798 26.6827 61.6891 26.416 62.9478 26.416C 64.0784 26.416 65.1024 26.6187 66.0197 27.024C 66.9584 27.4293 67.7584 27.9947 68.4198 28.72C 69.1024 29.4453 69.6251 30.2987 69.9877 31.28C 70.3504 32.24 70.5317 33.2747 70.5317 34.384C 70.5317 35.4933 70.3504 36.5387 69.9877 37.52C 69.6251 38.5013 69.1131 39.3547 68.4517 40.08C 67.7904 40.8053 66.9904 41.3813 66.0518 41.808C 65.1131 42.2133 64.0571 42.416 62.8837 42.416C 61.7957 42.416 60.7718 42.1813 59.8117 41.712C 58.8517 41.2427 58.0944 40.5813 57.5398 39.728L 57.4437 39.728L 57.4437 49.68ZM 67.4277 34.384C 67.4277 33.68 67.3211 32.9973 67.1077 32.336C 66.8944 31.6747 66.5744 31.088 66.1477 30.576C 65.7211 30.064 65.1877 29.6587 64.5478 29.36C 63.9291 29.0613 63.2037 28.912 62.3717 28.912C 61.6038 28.912 60.8997 29.0613 60.2598 29.36C 59.6411 29.6587 59.1077 30.064 58.6597 30.576C 58.2118 31.088 57.8597 31.6747 57.6038 32.336C 57.3691 32.9973 57.2517 33.6907 57.2517 34.416C 57.2517 35.1413 57.3691 35.8347 57.6038 36.496C 57.8597 37.1573 58.2118 37.744 58.6597 38.256C 59.1077 38.7467 59.6411 39.1413 60.2598 39.44C 60.8997 39.7387 61.6038 39.888 62.3717 39.888C 63.2037 39.888 63.9291 39.7387 64.5478 39.44C 65.1877 39.12 65.7211 38.704 66.1477 38.192C 66.5744 37.68 66.8944 37.0933 67.1077 36.432C 67.3211 35.7707 67.4277 35.088 67.4277 34.384ZM 90.077 34.384C 90.077 35.5573 89.8637 36.6347 89.437 37.616C 89.0317 38.5973 88.4557 39.4507 87.709 40.176C 86.9837 40.88 86.1197 41.4347 85.117 41.84C 84.1143 42.224 83.037 42.416 81.885 42.416C 80.733 42.416 79.6557 42.224 78.653 41.84C 77.6503 41.4347 76.7863 40.88 76.061 40.176C 75.3357 39.4507 74.7597 38.5973 74.333 37.616C 73.9277 36.6347 73.725 35.5573 73.725 34.384C 73.725 33.2107 73.9277 32.144 74.333 31.184C 74.7597 30.2027 75.3357 29.36 76.061 28.656C 76.7863 27.952 77.6503 27.408 78.653 27.024C 79.6557 26.6187 80.733 26.416 81.885 26.416C 83.037 26.416 84.1143 26.6187 85.117 27.024C 86.1197 27.408 86.9837 27.952 87.709 28.656C 88.4557 29.36 89.0317 30.2027 89.437 31.184C 89.8637 32.144 90.077 33.2107 90.077 34.384ZM 86.941 34.384C 86.941 33.6587 86.8237 32.9653 86.589 32.304C 86.3757 31.6427 86.0557 31.0667 85.629 30.576C 85.2023 30.064 84.669 29.6587 84.029 29.36C 83.4103 29.0613 82.6957 28.912 81.885 28.912C 81.0743 28.912 80.349 29.0613 79.709 29.36C 79.0903 29.6587 78.5677 30.064 78.141 30.576C 77.7143 31.0667 77.3837 31.6427 77.149 32.304C 76.9357 32.9653 76.829 33.6587 76.829 34.384C 76.829 35.1093 76.9357 35.8027 77.149 36.464C 77.3837 37.1253 77.7143 37.712 78.141 38.224C 78.5677 38.736 79.0903 39.1413 79.709 39.44C 80.349 39.7387 81.0743 39.888 81.885 39.888C 82.6957 39.888 83.4103 39.7387 84.029 39.44C 84.669 39.1413 85.2023 38.736 85.629 38.224C 86.0557 37.712 86.3757 37.1253 86.589 36.464C 86.8237 35.8027 86.941 35.1093 86.941 34.384ZM 96.9682 26.832C 97.0109 27.216 97.0429 27.6533 97.0642 28.144C 97.0856 28.6133 97.0963 29.008 97.0963 29.328L 97.1922 29.328C 97.3843 28.9227 97.6403 28.5493 97.9602 28.208C 98.3016 27.8453 98.6856 27.536 99.1122 27.28C 99.5389 27.0027 100.008 26.7893 100.52 26.64C 101.032 26.4907 101.566 26.416 102.12 26.416C 103.102 26.416 103.944 26.5867 104.648 26.928C 105.352 27.248 105.939 27.6853 106.408 28.24C 106.878 28.7947 107.219 29.4453 107.432 30.192C 107.667 30.9387 107.784 31.7387 107.784 32.592L 107.784 42L 104.776 42L 104.776 33.584C 104.776 32.9653 104.723 32.3787 104.616 31.824C 104.531 31.2693 104.36 30.7787 104.104 30.352C 103.848 29.9253 103.496 29.584 103.048 29.328C 102.6 29.072 102.024 28.944 101.32 28.944C 100.126 28.944 99.1442 29.4027 98.3762 30.32C 97.6296 31.216 97.2562 32.4213 97.2562 33.936L 97.2562 42L 94.2483 42L 94.2483 30.096C 94.2483 29.6907 94.2376 29.168 94.2162 28.528C 94.1949 27.888 94.1629 27.3227 94.1202 26.832L 96.9682 26.832ZM 121.065 30.672C 120.724 30.1173 120.244 29.6693 119.625 29.328C 119.007 28.9653 118.313 28.784 117.545 28.784C 117.204 28.784 116.863 28.8267 116.521 28.912C 116.18 28.976 115.871 29.0933 115.593 29.264C 115.337 29.4133 115.124 29.616 114.953 29.872C 114.804 30.1067 114.729 30.4053 114.729 30.768C 114.729 31.408 115.017 31.888 115.593 32.208C 116.169 32.5067 117.033 32.784 118.185 33.04C 118.911 33.2107 119.583 33.4133 120.201 33.648C 120.82 33.8827 121.353 34.1813 121.801 34.544C 122.271 34.8853 122.633 35.3013 122.889 35.792C 123.145 36.2827 123.273 36.8587 123.273 37.52C 123.273 38.416 123.103 39.1733 122.761 39.792C 122.42 40.4107 121.961 40.9227 121.385 41.328C 120.831 41.712 120.191 41.9893 119.465 42.16C 118.74 42.3307 117.993 42.416 117.225 42.416C 116.073 42.416 114.943 42.192 113.833 41.744C 112.745 41.296 111.839 40.6133 111.113 39.696L 113.257 37.872C 113.663 38.4693 114.217 38.9707 114.921 39.376C 115.647 39.7813 116.436 39.984 117.289 39.984C 117.673 39.984 118.036 39.952 118.377 39.888C 118.74 39.8027 119.06 39.6747 119.337 39.504C 119.636 39.3333 119.871 39.1093 120.041 38.832C 120.212 38.5547 120.297 38.2027 120.297 37.776C 120.297 37.072 119.956 36.5493 119.273 36.208C 118.612 35.8667 117.631 35.5467 116.329 35.248C 115.817 35.12 115.295 34.9707 114.761 34.8C 114.249 34.608 113.78 34.352 113.353 34.032C 112.927 33.712 112.575 33.3173 112.297 32.848C 112.041 32.3573 111.913 31.76 111.913 31.056C 111.913 30.2453 112.073 29.552 112.393 28.976C 112.735 28.3787 113.172 27.8987 113.705 27.536C 114.239 27.152 114.847 26.8747 115.529 26.704C 116.212 26.512 116.916 26.416 117.641 26.416C 118.729 26.416 119.775 26.6293 120.777 27.056C 121.801 27.4827 122.591 28.1013 123.145 28.912L 121.065 30.672ZM 130.132 42L 127.124 42L 127.124 26.832L 130.132 26.832L 130.132 42ZM 130.644 21.36C 130.644 21.9147 130.441 22.3733 130.036 22.736C 129.652 23.0987 129.183 23.28 128.628 23.28C 128.073 23.28 127.604 23.0987 127.22 22.736C 126.836 22.352 126.644 21.8933 126.644 21.36C 126.644 20.8053 126.836 20.3467 127.22 19.984C 127.604 19.6 128.073 19.408 128.628 19.408C 129.183 19.408 129.652 19.6 130.036 19.984C 130.441 20.3467 130.644 20.8053 130.644 21.36ZM 142.509 42L 139.245 42L 133.069 26.832L 136.397 26.832L 140.845 38.768L 140.909 38.768L 145.389 26.832L 148.589 26.832L 142.509 42ZM 162.602 33.072C 162.581 32.4747 162.474 31.92 162.282 31.408C 162.112 30.8747 161.845 30.416 161.482 30.032C 161.141 29.648 160.704 29.3493 160.17 29.136C 159.658 28.9013 159.05 28.784 158.346 28.784C 157.706 28.784 157.098 28.9013 156.522 29.136C 155.968 29.3493 155.477 29.648 155.05 30.032C 154.645 30.416 154.304 30.8747 154.026 31.408C 153.77 31.92 153.621 32.4747 153.578 33.072L 162.602 33.072ZM 165.642 34.288C 165.642 34.4587 165.642 34.6293 165.642 34.8C 165.642 34.9707 165.632 35.1413 165.61 35.312L 153.578 35.312C 153.6 35.952 153.738 36.56 153.994 37.136C 154.272 37.6907 154.634 38.1813 155.082 38.608C 155.53 39.0133 156.042 39.3333 156.618 39.568C 157.216 39.8027 157.845 39.92 158.506 39.92C 159.53 39.92 160.416 39.696 161.162 39.248C 161.909 38.8 162.496 38.256 162.922 37.616L 165.034 39.312C 164.224 40.3787 163.264 41.168 162.154 41.68C 161.066 42.1707 159.85 42.416 158.506 42.416C 157.354 42.416 156.288 42.224 155.306 41.84C 154.325 41.456 153.482 40.9227 152.778 40.24C 152.074 39.536 151.52 38.6933 151.114 37.712C 150.709 36.7307 150.506 35.6427 150.506 34.448C 150.506 33.2747 150.698 32.1973 151.082 31.216C 151.488 30.2133 152.042 29.36 152.746 28.656C 153.45 27.952 154.282 27.408 155.242 27.024C 156.202 26.6187 157.237 26.416 158.346 26.416C 159.456 26.416 160.458 26.5973 161.354 26.96C 162.272 27.3227 163.04 27.8453 163.658 28.528C 164.298 29.2107 164.789 30.0427 165.13 31.024C 165.472 31.984 165.642 33.072 165.642 34.288ZM 197.426 38.48C 196.53 39.696 195.367 40.688 193.938 41.456C 192.509 42.2027 190.791 42.576 188.786 42.576C 187.058 42.576 185.458 42.288 183.986 41.712C 182.535 41.1147 181.277 40.2933 180.21 39.248C 179.165 38.1813 178.343 36.9227 177.746 35.472C 177.149 34 176.85 32.3893 176.85 30.64C 176.85 28.8693 177.149 27.2587 177.746 25.808C 178.365 24.336 179.207 23.088 180.274 22.064C 181.362 21.0187 182.642 20.208 184.114 19.632C 185.586 19.056 187.186 18.768 188.914 18.768C 189.682 18.768 190.461 18.8427 191.25 18.992C 192.039 19.1413 192.797 19.3653 193.522 19.664C 194.247 19.9627 194.909 20.336 195.506 20.784C 196.103 21.2107 196.615 21.712 197.042 22.288L 194.546 24.208C 193.991 23.44 193.202 22.8107 192.178 22.32C 191.175 21.808 190.087 21.552 188.914 21.552C 187.591 21.552 186.397 21.7973 185.33 22.288C 184.285 22.7573 183.389 23.408 182.642 24.24C 181.895 25.072 181.319 26.0427 180.914 27.152C 180.509 28.24 180.306 29.4027 180.306 30.64C 180.306 31.92 180.498 33.1147 180.882 34.224C 181.287 35.3333 181.853 36.304 182.578 37.136C 183.325 37.9467 184.221 38.5867 185.266 39.056C 186.333 39.5253 187.517 39.76 188.818 39.76C 190.098 39.76 191.261 39.504 192.306 38.992C 193.351 38.48 194.215 37.7333 194.898 36.752L 197.426 38.48ZM 208.407 42L 205.239 42L 205.239 22.128L 197.975 22.128L 197.975 19.344L 215.671 19.344L 215.671 22.128L 208.407 22.128L 208.407 42ZM 217.711 42L 214.191 42L 224.015 19.344L 226.895 19.344L 236.623 42L 233.039 42L 230.735 36.432L 219.983 36.432L 217.711 42ZM 221.103 33.648L 229.583 33.648L 225.359 23.024L 221.103 33.648ZM 246.971 19.344L 254.779 19.344C 255.632 19.344 256.485 19.44 257.339 19.632C 258.192 19.824 258.949 20.144 259.611 20.592C 260.293 21.04 260.837 21.6267 261.243 22.352C 261.669 23.0773 261.883 23.984 261.883 25.072C 261.883 26.3307 261.52 27.3867 260.795 28.24C 260.069 29.0933 259.109 29.68 257.915 30L 257.915 30.064C 258.64 30.1493 259.312 30.3413 259.931 30.64C 260.549 30.9173 261.083 31.2907 261.531 31.76C 261.979 32.2293 262.32 32.784 262.555 33.424C 262.811 34.064 262.939 34.7787 262.939 35.568C 262.939 36.656 262.715 37.6053 262.267 38.416C 261.819 39.2267 261.211 39.8987 260.443 40.432C 259.675 40.944 258.768 41.3387 257.723 41.616C 256.699 41.872 255.6 42 254.427 42L 246.971 42L 246.971 19.344ZM 250.139 28.912L 254.267 28.912C 254.864 28.912 255.429 28.848 255.963 28.72C 256.517 28.5707 256.997 28.3573 257.403 28.08C 257.808 27.7813 258.128 27.4187 258.363 26.992C 258.597 26.544 258.715 26.0107 258.715 25.392C 258.715 24.176 258.267 23.312 257.371 22.8C 256.475 22.2667 255.269 22 253.755 22L 250.139 22L 250.139 28.912ZM 250.139 39.312L 254.107 39.312C 254.768 39.312 255.429 39.2587 256.091 39.152C 256.773 39.024 257.381 38.8107 257.915 38.512C 258.469 38.2133 258.907 37.8187 259.227 37.328C 259.568 36.816 259.739 36.176 259.739 35.408C 259.739 34.064 259.28 33.0933 258.363 32.496C 257.445 31.8987 256.123 31.6 254.395 31.6L 250.139 31.6L 250.139 39.312ZM 278.03 42C 277.987 41.616 277.955 41.1893 277.934 40.72C 277.913 40.2293 277.902 39.824 277.902 39.504L 277.838 39.504C 277.454 40.3147 276.803 41.008 275.886 41.584C 274.99 42.1387 273.987 42.416 272.878 42.416C 271.897 42.416 271.043 42.256 270.318 41.936C 269.614 41.616 269.027 41.1787 268.558 40.624C 268.11 40.048 267.769 39.3867 267.534 38.64C 267.321 37.8933 267.214 37.0933 267.214 36.24L 267.214 26.832L 270.222 26.832L 270.222 35.216C 270.222 35.8347 270.265 36.432 270.35 37.008C 270.457 37.5627 270.638 38.0533 270.894 38.48C 271.15 38.9067 271.502 39.248 271.95 39.504C 272.398 39.76 272.974 39.888 273.678 39.888C 274.894 39.888 275.875 39.44 276.622 38.544C 277.369 37.6267 277.742 36.4107 277.742 34.896L 277.742 26.832L 280.75 26.832L 280.75 38.736C 280.75 39.1413 280.761 39.664 280.782 40.304C 280.803 40.944 280.835 41.5093 280.878 42L 278.03 42ZM 289.007 42L 285.999 42L 285.999 26.832L 289.007 26.832L 289.007 42ZM 289.519 21.36C 289.519 21.9147 289.316 22.3733 288.911 22.736C 288.527 23.0987 288.058 23.28 287.503 23.28C 286.948 23.28 286.479 23.0987 286.095 22.736C 285.711 22.352 285.519 21.8933 285.519 21.36C 285.519 20.8053 285.711 20.3467 286.095 19.984C 286.479 19.6 286.948 19.408 287.503 19.408C 288.058 19.408 288.527 19.6 288.911 19.984C 289.316 20.3467 289.519 20.8053 289.519 21.36ZM 297.32 42L 294.312 42L 294.312 17.808L 297.32 17.808L 297.32 42ZM 314.657 39.6C 314.081 40.5173 313.291 41.2213 312.289 41.712C 311.307 42.1813 310.273 42.416 309.185 42.416C 308.011 42.416 306.955 42.2133 306.017 41.808C 305.078 41.3813 304.278 40.8053 303.617 40.08C 302.955 39.3547 302.443 38.5013 302.081 37.52C 301.718 36.5387 301.537 35.4933 301.537 34.384C 301.537 33.2747 301.718 32.24 302.081 31.28C 302.443 30.2987 302.955 29.4453 303.617 28.72C 304.299 27.9947 305.11 27.4293 306.049 27.024C 306.987 26.6187 308.022 26.416 309.153 26.416C 310.39 26.416 311.467 26.6827 312.385 27.216C 313.302 27.728 314.027 28.3573 314.561 29.104L 314.625 29.104L 314.625 17.808L 317.633 17.808L 317.633 42L 314.721 42L 314.721 39.6L 314.657 39.6ZM 304.673 34.384C 304.673 35.088 304.779 35.7707 304.993 36.432C 305.206 37.0933 305.526 37.68 305.953 38.192C 306.379 38.704 306.902 39.12 307.521 39.44C 308.139 39.7387 308.865 39.888 309.697 39.888C 310.465 39.888 311.158 39.7387 311.777 39.44C 312.417 39.1413 312.961 38.7467 313.409 38.256C 313.857 37.744 314.198 37.1573 314.433 36.496C 314.689 35.8347 314.817 35.1413 314.817 34.416C 314.817 33.6907 314.689 32.9973 314.433 32.336C 314.198 31.6747 313.857 31.088 313.409 30.576C 312.961 30.064 312.417 29.6587 311.777 29.36C 311.158 29.0613 310.465 28.912 309.697 28.912C 308.865 28.912 308.139 29.0613 307.521 29.36C 306.902 29.6587 306.379 30.064 305.953 30.576C 305.526 31.088 305.206 31.6747 304.993 32.336C 304.779 32.9973 304.673 33.68 304.673 34.384ZM 333.977 33.072C 333.956 32.4747 333.849 31.92 333.657 31.408C 333.487 30.8747 333.22 30.416 332.857 30.032C 332.516 29.648 332.079 29.3493 331.545 29.136C 331.033 28.9013 330.425 28.784 329.721 28.784C 329.081 28.784 328.473 28.9013 327.897 29.136C 327.343 29.3493 326.852 29.648 326.425 30.032C 326.02 30.416 325.679 30.8747 325.401 31.408C 325.145 31.92 324.996 32.4747 324.953 33.072L 333.977 33.072ZM 337.017 34.288C 337.017 34.4587 337.017 34.6293 337.017 34.8C 337.017 34.9707 337.007 35.1413 336.985 35.312L 324.953 35.312C 324.975 35.952 325.113 36.56 325.369 37.136C 325.647 37.6907 326.009 38.1813 326.457 38.608C 326.905 39.0133 327.417 39.3333 327.993 39.568C 328.591 39.8027 329.22 39.92 329.881 39.92C 330.905 39.92 331.791 39.696 332.537 39.248C 333.284 38.8 333.871 38.256 334.297 37.616L 336.409 39.312C 335.599 40.3787 334.639 41.168 333.529 41.68C 332.441 42.1707 331.225 42.416 329.881 42.416C 328.729 42.416 327.663 42.224 326.681 41.84C 325.7 41.456 324.857 40.9227 324.153 40.24C 323.449 39.536 322.895 38.6933 322.489 37.712C 322.084 36.7307 321.881 35.6427 321.881 34.448C 321.881 33.2747 322.073 32.1973 322.457 31.216C 322.863 30.2133 323.417 29.36 324.121 28.656C 324.825 27.952 325.657 27.408 326.617 27.024C 327.577 26.6187 328.612 26.416 329.721 26.416C 330.831 26.416 331.833 26.5973 332.729 26.96C 333.647 27.3227 334.415 27.8453 335.033 28.528C 335.673 29.2107 336.164 30.0427 336.505 31.024C 336.847 31.984 337.017 33.072 337.017 34.288ZM 341.217 30.096C 341.217 29.6907 341.206 29.168 341.185 28.528C 341.164 27.888 341.132 27.3227 341.089 26.832L 343.937 26.832C 343.98 27.216 344.012 27.664 344.033 28.176C 344.054 28.6667 344.065 29.072 344.065 29.392L 344.161 29.392C 344.588 28.496 345.206 27.7813 346.017 27.248C 346.849 26.6933 347.777 26.416 348.801 26.416C 349.27 26.416 349.665 26.4587 349.985 26.544L 349.857 29.328C 349.43 29.2213 348.972 29.168 348.481 29.168C 347.756 29.168 347.126 29.3067 346.593 29.584C 346.06 29.84 345.612 30.192 345.249 30.64C 344.908 31.088 344.652 31.6107 344.481 32.208C 344.31 32.784 344.225 33.392 344.225 34.032L 344.225 42L 341.217 42L 341.217 30.096Z"/>
</defs>
</svg>
